{"title":"Empire(2005)ep4-6 of 6.DVD.Rip.XviD.AC-3","uid":6825902,"size":1468654232,"categoryP":"video","categoryS":"movies","magnet":"?xt=urn:btih:28e0dd2cbaaa8d64c8b1c1cc1b77183fd26540b9&amp;dn=Empire%282005%29ep4-6+of+6.DVD.Rip.XviD.AC-3&amp;tr=udp%3A%2F%2Ftracker.openbittorrent.com%3A80&amp;tr=udp%3A%2F%2Fopen.demonii.com%3A1337&amp;tr=udp%3A%2F%2Ftracker.coppersurfer.tk%3A6969&amp;tr=udp%3A%2F%2Fexodus.desync.com%3A6969","seeders":1,"leechers":0,"uploader":"TvTeam","files":4,"time":1321561470,"description":". \n &lt;a href=&quot;\nhttp://www.torrenting.com&quot; rel=&quot;nofollow&quot; target=&quot;_NEW&quot;&gt;\nhttp://www.torrenting.com&lt;/a&gt;          :     Once &amp; For all ;)\n\n\n               www . Torrenting . Com \n\n(((((((((((((= Enjoy No RAR releases =))))))))))))))))))))\n\n\n...................................NFO:....................................\n\n.Video\nID                               : 0\nFormat                           : MPEG-4 Visual\nFormat profile                   : Advanced Simple@L5\nFormat settings, BVOP            : Yes\nFormat settings, QPel            : No\nFormat settings, GMC             : No warppoints\nFormat settings, Matrix          : Custom\nCodec ID                         : XVID\nCodec ID/Hint                    : XviD\nDuration                         : 2h 1mn\nBit rate                         : 1 223 Kbps\nWidth                            : 720 pixels\nHeight                           : 400 pixels\nDisplay aspect ratio             : 16:9\nFrame rate                       : 25.000 fps\nColor space                      : YUV\nChroma subsampling               : 4:2:0\nBit depth                        : 8 bits\nScan type                        : Progressive\nBits/(Pixel*Frame)               : 0.170\nStream size                      : 1.04 GiB (76%)\nWriting library                  : XviD 62\n\nAudio\nID                               : 1\nFormat                           : AC-3\nFormat/Info                      : Audio Coding 3\nMode extension                   : CM (complete main)\nCodec ID                         : 2000\nDuration                         : 2h 1mn\nBit rate mode                    : Constant\nBit rate                         : 384 Kbps\nChannel(s)                       : 6 channels\nChannel positions                : Front: L C R, Side: L R, LFE\nSampling rate                    : 48.0 KHz\nBit depth                        : 16 bits\nStream size                      : 333 MiB (24%)\nAlignment                        : Aligned on interleaves\nInterleave, duration             : 96 ms (2.40 video frames)\nInterleave, preload duration     : 96 ms","torrent":{"xt":"urn:btih:28e0dd2cbaaa8d64c8b1c1cc1b77183fd26540b9","amp;dn":"Empire%282005%29ep4-6+of+6.DVD.Rip.XviD.AC-3","amp;tr":["udp%3A%2F%2Ftracker.openbittorrent.com%3A80","udp%3A%2F%2Fopen.demonii.com%3A1337","udp%3A%2F%2Ftracker.coppersurfer.tk%3A6969","udp%3A%2F%2Fexodus.desync.com%3A6969"],"infoHash":"28e0dd2cbaaa8d64c8b1c1cc1b77183fd26540b9","infoHashBuffer":{"type":"Buffer","data":[40,224,221,44,186,170,141,100,200,177,193,204,27,119,24,63,210,101,64,185]},"announce":[],"urlList":[]}}